# xmcd CD database file
#
# Track frame offsets:
#	150
#	19498
#	47465
#	68048
#	89790
#	111268
#	130067
#	150333
#	170902
#	195036
#	219759
#	238868
#	258513
#	276716
#
# Disc length: 4086 seconds
#
# Revision: 1
# Processed by: cddbd v1.5.1PL2 Copyright (c) Steve Scherf et al.
# Submitted via: CDex 1.50Beta7
#
DISCID=c80ff40e
DTITLE=Cristina Mel - As canções da minha vida
DYEAR=2005
DGENRE=Gospel
TTITLE0=Fé
TTITLE1=Santo Deus - Usa-me
TTITLE2=Tudo por você
TTITLE3=Para sempre em meu coração
TTITLE4=Se o Espírito Santo te tocar
TTITLE5=Nuvem passageira
TTITLE6=Me levantou Jesus
TTITLE7=Aleluia
TTITLE8=Como eu poderia esquecer
TTITLE9=Ao amigo distante
TTITLE10=Há um anjo neste lugar
TTITLE11=Mestre
TTITLE12=Depende de você
TTITLE13=A mão do mestre
EXTD=YEAR: 2005
EXTT0=
EXTT1=
EXTT2=
EXTT3=
EXTT4=
EXTT5=
EXTT6=
EXTT7=
EXTT8=
EXTT9=
EXTT10=
EXTT11=
EXTT12=
EXTT13=
PLAYORDER=
